# Blender v2.79 (sub 0) OBJ File: 'crate.blend'
# www.blender.org
mtllib lid.mtl
o Lid_Lid.002
v 7.360209 2.892736 -0.250000
v 7.397184 2.872121 -0.250000
v 4.250000 0.000000 -0.250000
v 7.327242 2.919294 -0.250000
v 7.562894 2.858041 -0.250000
v 7.602817 2.872121 -0.250000
v 10.750000 0.000000 -0.250000
v 7.299230 2.951034 -0.250000
v 3.997537 1.785011 -0.250000
v 7.276973 2.987045 -0.250000
v 3.988177 1.825973 -0.250000
v 7.261112 3.026295 -0.250000
v 7.639792 2.892736 -0.250000
v 7.672759 2.919294 -0.250000
v 11.002463 1.785011 -0.250000
v 7.747900 3.067658 -0.250000
v 8.000001 5.000000 -0.250000
v 15.000000 5.000000 -0.250000
v 7.738889 3.026295 -0.250000
v 3.527911 1.864789 -0.250000
v 0.000000 5.000000 -0.250000
v 3.550272 1.900362 -0.250000
v 3.578275 1.931688 -0.250000
v 3.250000 0.000000 -0.250000
v 0.000000 0.000000 -0.250000
v 3.502464 1.785011 -0.250000
v 3.511823 1.825973 -0.250000
v 3.972090 1.864789 -0.250000
v 3.949728 1.900362 -0.250000
v 3.921725 1.931688 -0.250000
v 7.437107 2.858041 -0.250000
v 7.478833 2.850898 -0.250000
v 7.521168 2.850898 -0.250000
v 3.888871 1.957882 -0.250000
v 3.852094 1.978203 -0.250000
v 7.252101 3.067658 -0.250000
v 3.812433 1.992079 -0.250000
v 7.000000 5.000000 -0.250000
v 3.771009 1.999116 -0.250000
v 3.728991 1.999116 -0.250000
v 3.687567 1.992079 -0.250000
v 3.647907 1.978203 -0.250000
v 3.611130 1.957882 -0.250000
v 11.228992 1.999116 -0.250000
v 11.187568 1.992079 -0.250000
v 7.700771 2.951034 -0.250000
v 11.147906 1.978203 -0.250000
v 11.111130 1.957882 -0.250000
v 11.078277 1.931688 -0.250000
v 11.050272 1.900362 -0.250000
v 11.027911 1.864789 -0.250000
v 11.011825 1.825973 -0.250000
v 15.000000 0.000000 -0.250000
v 11.750001 0.000000 -0.250000
v 11.497537 1.785011 -0.250000
v 11.488177 1.825973 -0.250000
v 11.472090 1.864789 -0.250000
v 11.449729 1.900362 -0.250000
v 11.421725 1.931688 -0.250000
v 11.388871 1.957882 -0.250000
v 11.352095 1.978203 -0.250000
v 11.312434 1.992079 -0.250000
v 7.723028 2.987045 -0.250000
v 11.271009 1.999116 -0.250000
v 15.000000 0.000000 0.000000
v 15.000000 5.000000 0.000000
v 10.750000 0.000000 -0.300000
v 11.750001 0.000000 -0.300000
v 0.000000 0.000000 0.000000
v 3.250000 0.000000 -0.300000
v 4.250000 0.000000 -0.300000
v 0.000000 5.000000 0.000000
v 7.000000 5.000000 -0.300000
v 8.000001 5.000000 -0.300000
v 3.502464 1.785011 -0.300000
v 3.511823 1.825973 -0.300000
v 3.527911 1.864789 -0.300000
v 3.550272 1.900362 -0.300000
v 3.578275 1.931688 -0.300000
v 3.611130 1.957882 -0.300000
v 3.647907 1.978203 -0.300000
v 3.687567 1.992079 -0.300000
v 3.728991 1.999116 -0.300000
v 3.771009 1.999116 -0.300000
v 3.812433 1.992079 -0.300000
v 3.852094 1.978203 -0.300000
v 3.888871 1.957882 -0.300000
v 3.921725 1.931688 -0.300000
v 3.949728 1.900362 -0.300000
v 3.972090 1.864789 -0.300000
v 3.988177 1.825973 -0.300000
v 3.997537 1.785011 -0.300000
v 11.002463 1.785011 -0.300000
v 11.011825 1.825973 -0.300000
v 11.027911 1.864789 -0.300000
v 11.050272 1.900362 -0.300000
v 11.078277 1.931688 -0.300000
v 11.111130 1.957882 -0.300000
v 11.147906 1.978203 -0.300000
v 11.187568 1.992079 -0.300000
v 11.228992 1.999116 -0.300000
v 11.271009 1.999116 -0.300000
v 11.312434 1.992079 -0.300000
v 11.352095 1.978203 -0.300000
v 11.388871 1.957882 -0.300000
v 11.421725 1.931688 -0.300000
v 11.449729 1.900362 -0.300000
v 11.472090 1.864789 -0.300000
v 11.488177 1.825973 -0.300000
v 11.497537 1.785011 -0.300000
v 7.747900 3.067658 -0.300000
v 7.738889 3.026295 -0.300000
v 7.723028 2.987045 -0.300000
v 7.700771 2.951034 -0.300000
v 7.672759 2.919294 -0.300000
v 7.639792 2.892736 -0.300000
v 7.602817 2.872121 -0.300000
v 7.562894 2.858041 -0.300000
v 7.521168 2.850898 -0.300000
v 7.478833 2.850898 -0.300000
v 7.437107 2.858041 -0.300000
v 7.397184 2.872121 -0.300000
v 7.360209 2.892736 -0.300000
v 7.327242 2.919294 -0.300000
v 7.299230 2.951034 -0.300000
v 7.276973 2.987045 -0.300000
v 7.261112 3.026295 -0.300000
v 7.252101 3.067658 -0.300000
vt 0.680408 0.490681
vt 0.678631 0.493146
vt 0.431034 0.283333
vt 0.682698 0.488483
vt 0.677417 0.504193
vt 0.678631 0.506854
vt 0.431034 0.716667
vt 0.685434 0.486615
vt 0.584915 0.266502
vt 0.688538 0.485132
vt 0.588446 0.265878
vt 0.691922 0.484074
vt 0.680408 0.509319
vt 0.682698 0.511517
vt 0.584915 0.733498
vt 0.695488 0.516527
vt 0.862069 0.533333
vt 0.862069 1.000000
vt 0.691922 0.515926
vt 0.591792 0.235194
vt 0.862069 0.000000
vt 0.594859 0.236685
vt 0.597559 0.238552
vt 0.431034 0.216667
vt 0.431034 0.000000
vt 0.584915 0.233498
vt 0.588446 0.234122
vt 0.591792 0.264806
vt 0.594859 0.263315
vt 0.597559 0.261448
vt 0.677417 0.495807
vt 0.676801 0.498589
vt 0.676801 0.501411
vt 0.599817 0.259258
vt 0.601569 0.256806
vt 0.695488 0.483473
vt 0.602765 0.254162
vt 0.862069 0.466667
vt 0.603372 0.251401
vt 0.603372 0.248599
vt 0.602765 0.245838
vt 0.601569 0.243194
vt 0.599817 0.240742
vt 0.603372 0.748599
vt 0.602765 0.745838
vt 0.685434 0.513385
vt 0.601569 0.743194
vt 0.599817 0.740742
vt 0.597559 0.738552
vt 0.594859 0.736685
vt 0.591792 0.735194
vt 0.588446 0.734122
vt 0.431034 1.000000
vt 0.431034 0.783333
vt 0.584915 0.766502
vt 0.588446 0.765878
vt 0.591792 0.764806
vt 0.594859 0.763315
vt 0.597559 0.761448
vt 0.599817 0.759258
vt 0.601569 0.756806
vt 0.602765 0.754162
vt 0.688538 0.514869
vt 0.603372 0.751401
vt 0.935345 0.409822
vt 0.935345 0.740580
vt 0.913793 0.409822
vt 0.913793 0.740580
vt 0.866379 0.282015
vt 0.862069 0.282015
vt 0.862069 0.215658
vt 0.866379 0.000000
vt 0.887931 0.000000
vt 0.866379 0.215658
vt 0.887931 0.995346
vt 0.866379 0.995346
vt 0.866379 0.779688
vt 0.862069 0.779688
vt 0.862069 0.713331
vt 0.866379 0.713331
vt 0.956896 0.409822
vt 0.956897 0.729338
vt 0.935345 0.409822
vt 0.935345 0.729338
vt 0.913793 0.000000
vt 0.913793 0.962452
vt 0.892241 0.513308
vt 0.892241 0.962452
vt 0.892241 0.000000
vt 0.892241 0.449144
vt 0.887931 0.449144
vt 0.887931 0.513308
vt 0.431034 1.000000
vt 0.000000 1.000000
vt 0.431034 0.000000
vt 0.000000 0.000000
vt 0.961207 0.567309
vt 0.961207 0.686172
vt 0.956897 0.567309
vt 0.956897 0.686172
vt 0.956897 0.564514
vt 0.961207 0.564514
vt 0.956897 0.561728
vt 0.961207 0.561728
vt 0.956897 0.559029
vt 0.961207 0.559029
vt 0.956897 0.556496
vt 0.961207 0.556496
vt 0.956897 0.554198
vt 0.961207 0.554198
vt 0.956897 0.552201
vt 0.961207 0.552201
vt 0.961207 0.709146
vt 0.965517 0.709146
vt 0.965517 0.711439
vt 0.961207 0.711439
vt 0.965517 0.713970
vt 0.961207 0.713970
vt 0.965517 0.716666
vt 0.961207 0.716666
vt 0.965517 0.719451
vt 0.961207 0.719451
vt 0.965517 0.722247
vt 0.961207 0.722247
vt 0.965517 0.724974
vt 0.961207 0.724974
vt 0.965517 0.727556
vt 0.961207 0.727556
vt 0.965517 0.729920
vt 0.961207 0.729920
vt 0.969828 0.533050
vt 0.965517 0.533050
vt 0.965517 0.530882
vt 0.969828 0.530882
vt 0.965517 0.528447
vt 0.969828 0.528447
vt 0.965517 0.525815
vt 0.969828 0.525815
vt 0.969828 0.409822
vt 0.965517 0.409822
vt 1.000000 0.409822
vt 0.913793 0.409822
vt 0.978236 0.290822
vt 0.935557 0.290822
vt 0.936364 0.288091
vt 0.971700 0.281043
vt 0.974114 0.283131
vt 0.976042 0.285503
vt 0.977429 0.288091
vt 0.937751 0.285503
vt 0.939679 0.283132
vt 0.942093 0.281043
vt 0.948095 0.277942
vt 0.962279 0.277017
vt 0.965698 0.277942
vt 0.951514 0.277017
vt 0.955085 0.276548
vt 0.958708 0.276548
vt 0.944925 0.279297
vt 0.968868 0.279297
vt 0.965517 0.424931
vt 0.961207 0.424931
vt 0.961207 0.422135
vt 0.965517 0.422135
vt 0.961207 0.419349
vt 0.965517 0.419349
vt 0.961207 0.416651
vt 0.965517 0.416651
vt 0.961207 0.414117
vt 0.965517 0.414117
vt 0.961207 0.411819
vt 0.965517 0.411819
vt 0.961207 0.409822
vt 0.965517 0.409822
vt 0.961207 0.729920
vt 0.956897 0.729920
vt 0.956897 0.727627
vt 0.961207 0.727627
vt 0.956897 0.725096
vt 0.961207 0.725096
vt 0.956897 0.722400
vt 0.961207 0.722400
vt 0.956897 0.719615
vt 0.961207 0.719615
vt 0.956897 0.716819
vt 0.961207 0.716819
vt 0.956897 0.714091
vt 0.961207 0.714091
vt 0.956897 0.711509
vt 0.961207 0.711509
vt 0.956897 0.709146
vt 0.961207 0.709146
vt 0.965517 0.533050
vt 0.969828 0.533050
vt 0.969828 0.535218
vt 0.965517 0.535218
vt 0.969828 0.537653
vt 0.965517 0.537653
vt 0.969828 0.540285
vt 0.965517 0.540285
vt 0.965517 0.656278
vt 0.969828 0.656278
vt 0.965517 0.543794
vt 0.961207 0.543794
vt 0.978236 0.157547
vt 1.000000 0.276548
vt 0.913793 0.276548
vt 0.935557 0.157547
vt 0.936364 0.154816
vt 0.937751 0.152229
vt 0.965698 0.144668
vt 0.968868 0.146022
vt 0.971700 0.147769
vt 0.974114 0.149857
vt 0.976042 0.152229
vt 0.977429 0.154816
vt 0.939678 0.149857
vt 0.942093 0.147769
vt 0.944925 0.146022
vt 0.948095 0.144668
vt 0.951514 0.143743
vt 0.955085 0.143274
vt 0.958708 0.143274
vt 0.962279 0.143743
vt 0.961207 0.422288
vt 0.956897 0.422288
vt 0.956897 0.419477
vt 0.961207 0.419477
vt 0.956897 0.416750
vt 0.961207 0.416750
vt 0.956897 0.414183
vt 0.961207 0.414183
vt 0.956897 0.411852
vt 0.961207 0.411852
vt 0.956897 0.409822
vt 0.961207 0.409822
vt 0.961207 0.709146
vt 0.956897 0.709146
vt 0.956897 0.706824
vt 0.961207 0.706824
vt 0.956897 0.704266
vt 0.961207 0.704266
vt 0.956897 0.701543
vt 0.961207 0.701543
vt 0.956897 0.698734
vt 0.961207 0.698734
vt 0.956897 0.695919
vt 0.961207 0.695919
vt 0.956897 0.693179
vt 0.961207 0.693179
vt 0.956897 0.690593
vt 0.961207 0.690593
vt 0.956897 0.688235
vt 0.961207 0.688235
vt 0.956897 0.686173
vt 0.961207 0.686173
vt 0.965517 0.669046
vt 0.961207 0.669046
vt 0.961207 0.667167
vt 0.965517 0.667167
vt 0.961207 0.664960
vt 0.965517 0.664960
vt 0.961207 0.662488
vt 0.965517 0.662488
vt 0.965517 0.543794
vt 0.961207 0.543794
vt 0.961207 0.552201
vt 0.956897 0.552201
vt 0.937670 0.134197
vt 0.978267 0.128823
vt 0.939589 0.136598
vt 0.942004 0.138714
vt 0.913793 0.000000
vt 1.000000 0.000000
vt 0.935526 0.128823
vt 0.936303 0.131580
vt 0.958721 0.143274
vt 0.955072 0.143274
vt 0.951475 0.142797
vt 0.977490 0.131580
vt 0.976123 0.134197
vt 0.968948 0.140484
vt 0.965760 0.141859
vt 0.962318 0.142797
vt 0.974204 0.136598
vt 0.971790 0.138714
vt 0.948033 0.141859
vt 0.944846 0.140484
vn 0.0000 0.0000 -1.0000
vn 1.0000 0.0000 0.0000
vn 0.0000 -1.0000 0.0000
vn -1.0000 0.0000 0.0000
vn 0.0000 1.0000 0.0000
vn 0.0000 0.0000 1.0000
vn -0.9901 0.1400 0.0000
vn -0.9749 0.2227 0.0000
vn -0.9749 0.2228 0.0000
vn -0.9238 0.3829 0.0000
vn -0.8466 0.5322 0.0000
vn -0.7455 0.6665 0.0000
vn -0.6234 0.7819 0.0000
vn -0.4836 0.8753 0.0000
vn -0.3302 0.9439 0.0000
vn -0.1675 0.9859 0.0000
vn 0.1675 0.9859 0.0000
vn 0.3302 0.9439 0.0000
vn 0.4836 0.8753 0.0000
vn 0.6234 0.7819 0.0000
vn 0.7455 0.6665 0.0000
vn 0.8466 0.5322 0.0000
vn 0.9238 0.3829 0.0000
vn 0.9749 0.2228 0.0000
vn 0.9901 0.1400 0.0000
vn -0.9238 0.3828 0.0000
vn -0.8467 0.5321 0.0000
vn 0.7456 0.6664 0.0000
vn 0.8467 0.5321 0.0000
vn 0.9238 0.3828 0.0000
vn 0.9749 0.2227 0.0000
vn 0.9771 -0.2129 0.0000
vn 0.9771 -0.2128 0.0000
vn 0.9272 -0.3747 0.0000
vn 0.8507 -0.5257 0.0000
vn 0.8506 -0.5258 0.0000
vn 0.7498 -0.6617 0.0000
vn 0.6273 -0.7787 0.0000
vn 0.6274 -0.7787 0.0000
vn 0.4870 -0.8734 0.0000
vn 0.3326 -0.9431 0.0000
vn 0.1687 -0.9857 0.0000
vn -0.1687 -0.9857 0.0000
vn -0.3326 -0.9431 0.0000
vn -0.4870 -0.8734 0.0000
vn -0.6273 -0.7787 0.0000
vn -0.6274 -0.7787 0.0000
vn -0.7498 -0.6617 0.0000
vn -0.8506 -0.5257 0.0000
vn -0.9272 -0.3747 0.0000
vn -0.9771 -0.2129 0.0000
vn -0.9916 -0.1294 0.0000
vn 0.9916 -0.1294 0.0000
usemtl Material.002
s off
f 1/1/1 2/2/1 3/3/1
f 1/1/1 3/3/1 4/4/1
f 5/5/1 6/6/1 7/7/1
f 4/4/1 3/3/1 8/8/1
f 8/8/1 3/3/1 9/9/1
f 8/8/1 9/9/1 10/10/1
f 10/10/1 9/9/1 11/11/1
f 10/10/1 11/11/1 12/12/1
f 6/6/1 13/13/1 7/7/1
f 7/7/1 13/13/1 14/14/1
f 7/7/1 14/14/1 15/15/1
f 16/16/1 17/17/1 18/18/1
f 16/16/1 18/18/1 19/19/1
f 20/20/1 21/21/1 22/22/1
f 22/22/1 21/21/1 23/23/1
f 24/24/1 25/25/1 26/26/1
f 26/26/1 25/25/1 21/21/1
f 26/26/1 21/21/1 27/27/1
f 27/27/1 21/21/1 20/20/1
f 11/11/1 28/28/1 12/12/1
f 12/12/1 28/28/1 29/29/1
f 12/12/1 29/29/1 30/30/1
f 2/2/1 31/31/1 3/3/1
f 3/3/1 31/31/1 32/32/1
f 3/3/1 32/32/1 7/7/1
f 7/7/1 32/32/1 33/33/1
f 7/7/1 33/33/1 5/5/1
f 30/30/1 34/34/1 12/12/1
f 12/12/1 34/34/1 35/35/1
f 12/12/1 35/35/1 36/36/1
f 36/36/1 35/35/1 37/37/1
f 36/36/1 37/37/1 38/38/1
f 38/38/1 37/37/1 39/39/1
f 38/38/1 39/39/1 21/21/1
f 21/21/1 39/39/1 40/40/1
f 21/21/1 40/40/1 41/41/1
f 41/41/1 42/42/1 21/21/1
f 21/21/1 42/42/1 43/43/1
f 21/21/1 43/43/1 23/23/1
f 44/44/1 45/45/1 46/46/1
f 45/45/1 47/47/1 46/46/1
f 46/46/1 47/47/1 48/48/1
f 46/46/1 48/48/1 49/49/1
f 49/49/1 50/50/1 46/46/1
f 46/46/1 50/50/1 51/51/1
f 46/46/1 51/51/1 14/14/1
f 14/14/1 51/51/1 52/52/1
f 14/14/1 52/52/1 15/15/1
f 53/53/1 54/54/1 18/18/1
f 18/18/1 54/54/1 55/55/1
f 18/18/1 55/55/1 56/56/1
f 56/56/1 57/57/1 18/18/1
f 18/18/1 57/57/1 58/58/1
f 18/18/1 58/58/1 59/59/1
f 59/59/1 60/60/1 18/18/1
f 18/18/1 60/60/1 61/61/1
f 18/18/1 61/61/1 62/62/1
f 19/19/1 18/18/1 63/63/1
f 63/63/1 18/18/1 62/62/1
f 63/63/1 62/62/1 46/46/1
f 46/46/1 62/62/1 64/64/1
f 46/46/1 64/64/1 44/44/1
f 53/65/2 18/66/2 65/67/2
f 65/67/2 18/66/2 66/68/2
f 7/69/3 67/70/3 68/71/3
f 53/72/3 65/73/3 54/74/3
f 54/74/3 65/73/3 69/75/3
f 69/75/3 25/76/3 24/77/3
f 70/78/3 71/79/3 24/77/3
f 24/77/3 71/79/3 3/80/3
f 24/77/3 3/80/3 69/75/3
f 69/75/3 3/80/3 7/69/3
f 69/75/3 7/69/3 54/74/3
f 54/74/3 7/69/3 68/71/3
f 21/81/4 25/82/4 72/83/4
f 72/83/4 25/82/4 69/84/4
f 72/85/5 66/86/5 17/87/5
f 17/87/5 66/86/5 18/88/5
f 21/89/5 72/85/5 38/90/5
f 38/90/5 72/85/5 17/87/5
f 38/90/5 17/87/5 73/91/5
f 73/91/5 17/87/5 74/92/5
f 72/93/6 69/94/6 66/95/6
f 66/95/6 69/94/6 65/96/6
f 75/97/7 70/98/7 26/99/7
f 26/99/7 70/98/7 24/100/7
f 75/97/8 26/99/8 27/101/8
f 75/97/9 27/101/9 76/102/9
f 76/102/10 27/101/10 20/103/10
f 76/102/10 20/103/10 77/104/10
f 77/104/11 20/103/11 22/105/11
f 77/104/11 22/105/11 78/106/11
f 78/106/12 22/105/12 23/107/12
f 78/106/12 23/107/12 79/108/12
f 79/108/13 23/107/13 43/109/13
f 79/108/13 43/109/13 80/110/13
f 80/110/14 43/109/14 42/111/14
f 80/110/14 42/111/14 81/112/14
f 81/113/15 42/114/15 41/115/15
f 81/113/15 41/115/15 82/116/15
f 82/116/16 41/115/16 40/117/16
f 82/116/16 40/117/16 83/118/16
f 83/118/5 40/117/5 39/119/5
f 83/118/5 39/119/5 84/120/5
f 84/120/17 39/119/17 37/121/17
f 84/120/17 37/121/17 85/122/17
f 85/122/18 37/121/18 35/123/18
f 85/122/18 35/123/18 86/124/18
f 86/124/19 35/123/19 34/125/19
f 86/124/19 34/125/19 87/126/19
f 87/126/20 34/125/20 30/127/20
f 87/126/20 30/127/20 88/128/20
f 88/128/21 30/127/21 29/129/21
f 88/128/21 29/129/21 89/130/21
f 89/131/22 29/132/22 28/133/22
f 89/131/22 28/133/22 90/134/22
f 90/134/23 28/133/23 11/135/23
f 90/134/23 11/135/23 91/136/23
f 91/136/24 11/135/24 9/137/24
f 91/136/24 9/137/24 92/138/24
f 71/139/25 92/138/25 3/140/25
f 3/140/25 92/138/25 9/137/25
f 71/141/1 70/142/1 92/143/1
f 92/143/1 70/142/1 75/144/1
f 92/143/1 75/144/1 76/145/1
f 76/145/1 88/146/1 89/147/1
f 89/147/1 90/148/1 76/145/1
f 76/145/1 90/148/1 91/149/1
f 76/145/1 91/149/1 92/143/1
f 76/145/1 77/150/1 88/146/1
f 88/146/1 77/150/1 78/151/1
f 88/146/1 78/151/1 79/152/1
f 81/153/1 85/154/1 86/155/1
f 81/153/1 82/156/1 85/154/1
f 85/154/1 82/156/1 83/157/1
f 85/154/1 83/157/1 84/158/1
f 79/152/1 80/159/1 88/146/1
f 88/146/1 80/159/1 81/153/1
f 88/146/1 81/153/1 87/160/1
f 87/160/1 81/153/1 86/155/1
f 93/161/9 15/162/9 52/163/9
f 93/161/9 52/163/9 94/164/9
f 94/164/26 52/163/26 51/165/26
f 94/164/10 51/165/10 95/166/10
f 95/166/27 51/165/27 50/167/27
f 95/166/11 50/167/11 96/168/11
f 96/168/12 50/167/12 49/169/12
f 96/168/12 49/169/12 97/170/12
f 97/170/13 49/169/13 48/171/13
f 97/170/13 48/171/13 98/172/13
f 98/172/14 48/171/14 47/173/14
f 98/172/14 47/173/14 99/174/14
f 99/175/15 47/176/15 45/177/15
f 99/175/15 45/177/15 100/178/15
f 100/178/16 45/177/16 44/179/16
f 100/178/16 44/179/16 101/180/16
f 101/180/5 44/179/5 64/181/5
f 101/180/5 64/181/5 102/182/5
f 102/182/17 64/181/17 62/183/17
f 102/182/17 62/183/17 103/184/17
f 103/184/18 62/183/18 61/185/18
f 103/184/18 61/185/18 104/186/18
f 104/186/19 61/185/19 60/187/19
f 104/186/19 60/187/19 105/188/19
f 105/188/20 60/187/20 59/189/20
f 105/188/20 59/189/20 106/190/20
f 106/190/28 59/189/28 58/191/28
f 106/190/21 58/191/21 107/192/21
f 107/193/29 58/194/29 57/195/29
f 107/193/22 57/195/22 108/196/22
f 108/196/30 57/195/30 56/197/30
f 108/196/23 56/197/23 109/198/23
f 109/198/31 56/197/31 55/199/31
f 109/198/24 55/199/24 110/200/24
f 68/201/25 110/200/25 54/202/25
f 54/202/25 110/200/25 55/199/25
f 93/161/7 67/203/7 15/162/7
f 15/162/7 67/203/7 7/204/7
f 110/205/1 68/206/1 67/207/1
f 67/207/1 93/208/1 110/205/1
f 110/205/1 93/208/1 94/209/1
f 110/205/1 94/209/1 95/210/1
f 104/211/1 105/212/1 106/213/1
f 95/210/1 106/213/1 107/214/1
f 107/214/1 108/215/1 95/210/1
f 95/210/1 108/215/1 109/216/1
f 95/210/1 109/216/1 110/205/1
f 95/210/1 96/217/1 106/213/1
f 106/213/1 96/217/1 97/218/1
f 106/213/1 97/218/1 98/219/1
f 98/219/1 99/220/1 106/213/1
f 106/213/1 99/220/1 100/221/1
f 106/213/1 100/221/1 101/222/1
f 101/222/1 102/223/1 106/213/1
f 106/213/1 102/223/1 103/224/1
f 106/213/1 103/224/1 104/211/1
f 111/225/32 16/226/32 19/227/32
f 111/225/33 19/227/33 112/228/33
f 112/228/34 19/227/34 63/229/34
f 112/228/34 63/229/34 113/230/34
f 113/230/35 63/229/35 46/231/35
f 113/230/36 46/231/36 114/232/36
f 114/232/37 46/231/37 14/233/37
f 114/232/37 14/233/37 115/234/37
f 115/234/38 14/233/38 13/235/38
f 115/234/39 13/235/39 116/236/39
f 116/237/40 13/238/40 6/239/40
f 116/237/40 6/239/40 117/240/40
f 117/240/41 6/239/41 5/241/41
f 117/240/41 5/241/41 118/242/41
f 118/242/42 5/241/42 33/243/42
f 118/242/42 33/243/42 119/244/42
f 119/244/3 33/243/3 32/245/3
f 119/244/3 32/245/3 120/246/3
f 120/246/43 32/245/43 31/247/43
f 120/246/43 31/247/43 121/248/43
f 121/248/44 31/247/44 2/249/44
f 121/248/44 2/249/44 122/250/44
f 122/250/45 2/249/45 1/251/45
f 122/250/45 1/251/45 123/252/45
f 123/252/46 1/251/46 4/253/46
f 123/252/47 4/253/47 124/254/47
f 124/254/48 4/253/48 8/255/48
f 124/254/48 8/255/48 125/256/48
f 125/257/49 8/258/49 10/259/49
f 125/257/49 10/259/49 126/260/49
f 126/260/50 10/259/50 12/261/50
f 126/260/50 12/261/50 127/262/50
f 127/262/51 12/261/51 36/263/51
f 127/262/51 36/263/51 128/264/51
f 73/265/52 128/264/52 38/266/52
f 38/266/52 128/264/52 36/263/52
f 111/225/53 74/267/53 16/226/53
f 16/226/53 74/267/53 17/268/53
f 126/269/1 111/270/1 125/271/1
f 125/271/1 111/270/1 124/272/1
f 73/273/1 74/274/1 128/275/1
f 128/275/1 74/274/1 111/270/1
f 128/275/1 111/270/1 127/276/1
f 127/276/1 111/270/1 126/269/1
f 119/277/1 120/278/1 111/270/1
f 111/270/1 120/278/1 121/279/1
f 111/270/1 112/280/1 113/281/1
f 116/282/1 117/283/1 111/270/1
f 111/270/1 117/283/1 118/284/1
f 111/270/1 118/284/1 119/277/1
f 113/281/1 114/285/1 111/270/1
f 111/270/1 114/285/1 115/286/1
f 111/270/1 115/286/1 116/282/1
f 121/279/1 122/287/1 111/270/1
f 111/270/1 122/287/1 123/288/1
f 111/270/1 123/288/1 124/272/1
